<svg width="18" height="18" viewBox="0 0 18 18" fill="none" xmlns="http://www.w3.org/2000/svg">
<path d="M9.00011 6.8001L15.0498 0.750412C15.3415 0.458689 15.7372 0.294799 16.1497 0.2948C16.5623 0.2948 16.958 0.458688 17.2497 0.750412C17.5414 1.04214 17.7053 1.4378 17.7053 1.85036C17.7053 2.26292 17.5414 2.65858 17.2497 2.9503L11.2 8.99999L17.2497 15.0497C17.5414 15.3414 17.7053 15.7371 17.7053 16.1496C17.7053 16.5622 17.5414 16.9578 17.2497 17.2496C16.958 17.5413 16.5623 17.7052 16.1497 17.7052C15.7372 17.7052 15.3415 17.5413 15.0498 17.2496L9.00011 11.1999L2.95042 17.2496C2.6587 17.5413 2.26304 17.7052 1.85048 17.7052C1.43792 17.7052 1.04226 17.5413 0.750534 17.2496C0.458811 16.9578 0.294922 16.5622 0.294922 16.1496C0.294922 15.7371 0.458811 15.3414 0.750534 15.0497L6.80023 8.99999L0.750534 2.9503C0.458811 2.65858 0.294922 2.26292 0.294922 1.85036C0.294922 1.4378 0.458811 1.04214 0.750534 0.750413C1.04226 0.45869 1.43792 0.2948 1.85048 0.2948C2.26304 0.2948 2.6587 0.458689 2.95042 0.750413L9.00011 6.8001Z" fill="#9E9BA2"/>
</svg>
